<?xml version="1.0" standalone="no"?>
<!DOCTYPE svg PUBLIC "-//W3C//DTD SVG 20010904//EN"
 "http://www.w3.org/TR/2001/REC-SVG-20010904/DTD/svg10.dtd">
<svg version="1.0" xmlns="http://www.w3.org/2000/svg"
 width="512.000000pt" height="512.000000pt" viewBox="0 0 512.000000 512.000000"
 preserveAspectRatio="xMidYMid meet">
<metadata>
Created by potrace 1.11, written by Peter Selinger 2001-2013
</metadata>
<g transform="translate(0.000000,512.000000) scale(0.100000,-0.100000)"
fill="#000000" stroke="none">
<path d="M2258 5114 c-2 -2 -24 -6 -49 -8 -24 -3 -57 -8 -74 -11 -32 -5 -97
-18 -105 -20 -3 0 -23 -4 -45 -9 -22 -4 -70 -16 -107 -28 -37 -11 -73 -21 -80
-22 -7 -2 -22 -6 -33 -10 -44 -17 -50 -19 -60 -21 -32 -8 -213 -84 -290 -123
-189 -94 -437 -260 -545 -364 -16 -16 -33 -28 -39 -28 -6 0 -11 -7 -11 -15 0
-8 -3 -15 -8 -15 -4 0 -33 -25 -65 -55 -32 -30 -56 -55 -54 -55 2 0 -21 -25
-50 -57 -29 -31 -72 -81 -96 -112 -23 -31 -48 -62 -55 -69 -6 -7 -12 -16 -12
-20 0 -4 -14 -22 -30 -41 -17 -18 -30 -39 -30 -47 0 -7 -4 -14 -8 -16 -22 -9
-159 -265 -235 -438 -48 -112 -136 -422 -151 -540 -3 -25 -9 -56 -13 -70 -3
-14 -7 -162 -9 -330 -2 -322 0 -347 50 -597 18 -88 70 -255 126 -398 12 -32
153 -319 162 -330 7 -9 139 -206 163 -244 6 -9 20 -26 33 -38 12 -12 22 -26
22 -30 0 -5 8 -16 18 -25 9 -8 40 -41 67 -73 78 -89 189 -197 274 -265 24 -19
59 -47 76 -63 18 -15 37 -27 43 -27 6 0 12 -3 14 -8 5 -12 152 -112 198 -134
14 -7 27 -15 30 -18 4 -5 100 -56 150 -81 63 -31 153 -69 163 -69 7 0 17 -4
23 -9 12 -13 210 -78 309 -102 104 -26 107 -26 146 -33 19 -3 57 -9 84 -14 28
-5 57 -10 65 -10 8 -1 44 -4 80 -8 127 -16 556 -8 611 10 8 3 33 7 56 10 22 3
52 8 65 10 12 3 34 8 48 10 14 2 45 9 70 16 25 7 50 13 55 15 44 10 75 19 108
31 20 8 38 14 40 13 6 -1 143 48 182 66 17 8 53 23 80 35 72 30 254 126 265
139 8 10 44 31 63 37 9 4 17 10 17 15 0 5 6 9 13 9 6 0 23 9 37 20 14 11 59
46 100 77 90 69 90 69 138 112 132 119 238 231 332 351 19 25 38 47 42 48 4 2
8 10 8 17 0 7 3 15 8 17 13 5 130 192 182 290 115 218 214 496 246 688 3 19 8
38 10 42 2 3 7 28 10 55 3 26 7 55 9 63 26 95 27 530 1 710 -13 87 -19 122
-33 180 -8 36 -17 75 -19 87 -2 12 -9 34 -14 48 -5 14 -7 25 -4 25 2 0 -2 14
-11 30 -9 17 -13 30 -10 30 5 0 -16 62 -62 180 -14 36 -48 112 -76 170 -27 58
-51 107 -52 110 -3 9 -39 70 -72 122 -18 27 -33 54 -33 59 0 5 -5 9 -11 9 -5
0 -8 4 -5 9 4 5 3 11 -2 13 -4 1 -25 28 -47 58 -22 30 -43 57 -47 58 -5 2 -8
8 -8 14 0 6 -15 27 -32 48 -18 20 -48 54 -66 76 -165 192 -406 395 -622 521
-53 32 -310 163 -320 164 -3 1 -19 7 -36 14 -106 44 -293 100 -436 131 -166
35 -254 42 -545 42 -149 0 -273 -2 -275 -4z"/>
</g>
</svg>
